<?xml version="1.0" encoding="UTF-8" standalone="no"?>
<svg width="120" height="60" viewBox="0 0 120 60" xmlns="http://www.w3.org/2000/svg">
  <!-- Leaf elements -->
  <g fill="#8BC34A" opacity="0.9">
    <path d="M20,10 C30,5 40,15 30,25 C40,15 50,25 40,35 C50,25 60,35 50,45 C60,35 70,45 60,55 L20,55 Z" />
  </g>
  
  <!-- Windmill element -->
  <g transform="translate(85, 30)">
    <rect x="-2" y="-2" width="4" height="25" fill="#4E6E39" />
    <rect x="-10" y="-10" width="20" height="20" fill="#FFB74D" opacity="0.2" />
    <g transform="rotate(0)">
      <path d="M0,0 L-15,-15 L-5,-5 Z" fill="#FFB74D" />
    </g>
    <g transform="rotate(90)">
      <path d="M0,0 L-15,-15 L-5,-5 Z" fill="#FFB74D" />
    </g>
    <g transform="rotate(180)">
      <path d="M0,0 L-15,-15 L-5,-5 Z" fill="#FFB74D" />
    </g>
    <g transform="rotate(270)">
      <path d="M0,0 L-15,-15 L-5,-5 Z" fill="#FFB74D" />
    </g>
  </g>
  
  <!-- Sparkles -->
  <circle cx="15" cy="15" r="2" fill="#FFB74D" />
  <circle cx="35" cy="10" r="1.5" fill="#FFB74D" />
  <circle cx="25" cy="30" r="1" fill="#FFB74D" />
  <circle cx="45" cy="25" r="1.5" fill="#FFB74D" />
  <circle cx="55" cy="15" r="1" fill="#FFB74D" />
  <circle cx="65" cy="35" r="2" fill="#FFB74D" />
  <circle cx="75" cy="20" r="1" fill="#FFB74D" />
</svg>
