<?xml version="1.0" encoding="UTF-8" standalone="no"?>
<svg width="100" height="100" viewBox="0 0 100 100" xmlns="http://www.w3.org/2000/svg">
  <!-- Small leaf pattern -->
  <g fill="#FFFFFF" opacity="0.15">
    <!-- Leaf 1 -->
    <path d="M10,10 C15,5 25,10 20,20 C25,10 35,15 30,25 L10,25 Z" />
    
    <!-- Leaf 2 -->
    <path d="M60,10 C65,5 75,10 70,20 C75,10 85,15 80,25 L60,25 Z" />
    
    <!-- Leaf 3 -->
    <path d="M10,60 C15,55 25,60 20,70 C25,60 35,65 30,75 L10,75 Z" />
    
    <!-- Leaf 4 -->
    <path d="M60,60 C65,55 75,60 70,70 C75,60 85,65 80,75 L60,75 Z" />
    
    <!-- Small dots -->
    <circle cx="35" cy="35" r="2" />
    <circle cx="85" cy="35" r="2" />
    <circle cx="35" cy="85" r="2" />
    <circle cx="85" cy="85" r="2" />
    
    <!-- Tiny dots -->
    <circle cx="10" cy="50" r="1" />
    <circle cx="50" cy="10" r="1" />
    <circle cx="90" cy="50" r="1" />
    <circle cx="50" cy="90" r="1" />
    <circle cx="50" cy="50" r="1.5" />
  </g>
</svg>
